<svg width="75" height="27" viewBox="0 0 75 27" fill="none" xmlns="http://www.w3.org/2000/svg">
<path d="M8.27306 26.7183C6.03837 26.6295 4.21006 26.018 2.78047 24.8823C2.50764 24.6654 1.85751 24.0148 1.6394 23.7405C1.05968 23.0115 0.665548 22.3021 0.402665 21.515C-0.406262 19.092 0.0100636 15.9126 1.59348 12.4232C2.94922 9.43578 5.04118 6.47291 8.69092 2.36934C9.22855 1.76551 10.8296 -0.000427246 10.8399 -0.000427246C10.8437 -0.000427246 10.7565 0.15072 10.6467 0.334777C9.69768 1.92431 8.88569 3.79663 8.44334 5.41755C7.73276 8.01844 7.81847 10.2505 8.69436 11.9812C9.29857 13.1735 10.3344 14.2063 11.4992 14.7772C13.5384 15.7763 16.5238 15.859 20.1697 15.0191C20.4207 14.9609 32.8592 11.659 47.811 7.68132C62.7628 3.70326 74.9981 0.451102 75 0.45378C75.0042 0.45723 40.2628 15.3233 22.228 23.0356C19.3719 24.2567 18.6081 24.5651 17.2654 25.0365C13.833 26.2419 10.7584 26.817 8.27306 26.7183Z" fill="black"/>
</svg>
